<svg xmlns="http://www.w3.org/2000/svg" width="100%" height="100%" viewBox="0 0 960 540">
<rect width="100%" height="100%" fill="white"/>
<g data-layer="grid">
<g data-id="grid-x-0" data-kind="grid" data-layer="grid"><polyline points="147.9,491.4 147.9,48.6" fill="none" stroke="#888888" stroke-width="1" stroke-dasharray="4 5"/><text x="147.9" y="503.4" font-family="Noto Sans KR, Malgun Gothic, sans-serif" font-size="9" text-anchor="middle">A</text></g>
<g data-id="grid-x-1" data-kind="grid" data-layer="grid"><polyline points="280.74,491.4 280.74,48.6" fill="none" stroke="#888888" stroke-width="1" stroke-dasharray="4 5"/><text x="280.74" y="503.4" font-family="Noto Sans KR, Malgun Gothic, sans-serif" font-size="9" text-anchor="middle">B</text></g>
<g data-id="grid-x-2" data-kind="grid" data-layer="grid"><polyline points="413.58,491.4 413.58,48.6" fill="none" stroke="#888888" stroke-width="1" stroke-dasharray="4 5"/><text x="413.58" y="503.4" font-family="Noto Sans KR, Malgun Gothic, sans-serif" font-size="9" text-anchor="middle">C</text></g>
<g data-id="grid-x-3" data-kind="grid" data-layer="grid"><polyline points="546.42,491.4 546.42,48.6" fill="none" stroke="#888888" stroke-width="1" stroke-dasharray="4 5"/><text x="546.42" y="503.4" font-family="Noto Sans KR, Malgun Gothic, sans-serif" font-size="9" text-anchor="middle">D</text></g>
<g data-id="grid-x-4" data-kind="grid" data-layer="grid"><polyline points="679.26,491.4 679.26,48.6" fill="none" stroke="#888888" stroke-width="1" stroke-dasharray="4 5"/><text x="679.26" y="503.4" font-family="Noto Sans KR, Malgun Gothic, sans-serif" font-size="9" text-anchor="middle">E</text></g>
<g data-id="grid-x-5" data-kind="grid" data-layer="grid"><polyline points="812.1,491.4 812.1,48.6" fill="none" stroke="#888888" stroke-width="1" stroke-dasharray="4 5"/><text x="812.1" y="503.4" font-family="Noto Sans KR, Malgun Gothic, sans-serif" font-size="9" text-anchor="middle">F</text></g>
<g data-id="grid-y-0" data-kind="grid" data-layer="grid"><polyline points="147.9,491.4 812.1,491.4" fill="none" stroke="#888888" stroke-width="1" stroke-dasharray="4 5"/><text x="135.9" y="491.4" font-family="Noto Sans KR, Malgun Gothic, sans-serif" font-size="9" text-anchor="middle">1</text></g>
<g data-id="grid-y-1" data-kind="grid" data-layer="grid"><polyline points="147.9,358.56 812.1,358.56" fill="none" stroke="#888888" stroke-width="1" stroke-dasharray="4 5"/><text x="135.9" y="358.56" font-family="Noto Sans KR, Malgun Gothic, sans-serif" font-size="9" text-anchor="middle">2</text></g>
<g data-id="grid-y-2" data-kind="grid" data-layer="grid"><polyline points="147.9,225.72 812.1,225.72" fill="none" stroke="#888888" stroke-width="1" stroke-dasharray="4 5"/><text x="135.9" y="225.72" font-family="Noto Sans KR, Malgun Gothic, sans-serif" font-size="9" text-anchor="middle">3</text></g>
<g data-id="grid-y-3" data-kind="grid" data-layer="grid"><polyline points="147.9,92.88 812.1,92.88" fill="none" stroke="#888888" stroke-width="1" stroke-dasharray="4 5"/><text x="135.9" y="92.88" font-family="Noto Sans KR, Malgun Gothic, sans-serif" font-size="9" text-anchor="middle">4</text></g>
<g data-id="grid-y-4" data-kind="grid" data-layer="grid"><polyline points="147.9,48.6 812.1,48.6" fill="none" stroke="#888888" stroke-width="1" stroke-dasharray="4 5"/><text x="135.9" y="48.6" font-family="Noto Sans KR, Malgun Gothic, sans-serif" font-size="9" text-anchor="middle">5</text></g>
</g>
<g data-layer="rooms">
<polygon data-id="sales_a" data-kind="room" data-layer="rooms" points="147.9,491.4 466.72,491.4 466.72,296.57 147.9,296.57" fill="white" stroke="#202020" stroke-width="4"/>
<polygon data-id="sales_b" data-kind="room" data-layer="rooms" points="493.28,491.4 812.1,491.4 812.1,296.57 493.28,296.57" fill="white" stroke="#202020" stroke-width="4"/>
<polygon data-id="core" data-kind="room" data-layer="rooms" points="653.09,270.0 812.1,270.0 812.1,48.6 653.09,48.6" fill="white" stroke="#202020" stroke-width="4"/>
<polygon data-id="checkout" data-kind="room" data-layer="rooms" points="254.17,270.0 307.31,270.0 307.31,80.7 254.17,80.7" fill="white" stroke="#202020" stroke-width="4"/>
<polygon data-id="restroom" data-kind="room" data-layer="rooms" points="307.31,270.0 364.1,270.0 364.1,48.6 307.31,48.6" fill="white" stroke="#202020" stroke-width="4"/>
<polygon data-id="staff" data-kind="room" data-layer="rooms" points="364.1,270.0 420.89,270.0 420.89,48.6 364.1,48.6" fill="white" stroke="#202020" stroke-width="4"/>
<polygon data-id="stock" data-kind="room" data-layer="rooms" points="420.89,270.0 534.46,270.0 534.46,48.6 420.89,48.6" fill="white" stroke="#202020" stroke-width="4"/>
<polygon data-id="utility" data-kind="room" data-layer="rooms" points="534.46,270.0 613.97,270.0 613.97,48.6 534.46,48.6" fill="white" stroke="#202020" stroke-width="4"/>
</g>
<polygon data-id="floor-boundary" data-kind="boundary" data-layer="rooms" points="147.9,491.4 812.1,491.4 812.1,48.6 147.9,48.6" fill="none" stroke="#111111" stroke-width="6"/>
<g data-layer="circulation">
<polygon data-id="corridor-spine" data-kind="circulation" data-layer="circulation" points="466.72,491.4 493.28,491.4 493.28,296.57 466.72,296.57" fill="white" stroke="#202020" stroke-width="2"/>
<polygon data-id="corridor-branch" data-kind="circulation" data-layer="circulation" points="147.9,296.57 812.1,296.57 812.1,270.0 147.9,270.0" fill="white" stroke="#202020" stroke-width="2"/>
</g>
<g data-layer="core">
<polygon data-id="core-stair-1" data-kind="stair" data-layer="core" points="653.09,154.87 715.08,154.87 715.08,48.6 653.09,48.6" fill="white" stroke="#202020" stroke-width="4"/><g data-symbol="stair-treads"><line x1="656.09" y1="63.78142857142858" x2="712.08" y2="63.78142857142858" stroke="#555555" stroke-width="1"/><line x1="656.09" y1="78.96285714285715" x2="712.08" y2="78.96285714285715" stroke="#555555" stroke-width="1"/><line x1="656.09" y1="94.14428571428573" x2="712.08" y2="94.14428571428573" stroke="#555555" stroke-width="1"/><line x1="656.09" y1="109.3257142857143" x2="712.08" y2="109.3257142857143" stroke="#555555" stroke-width="1"/><line x1="656.09" y1="124.50714285714287" x2="712.08" y2="124.50714285714287" stroke="#555555" stroke-width="1"/><line x1="656.09" y1="139.68857142857144" x2="712.08" y2="139.68857142857144" stroke="#555555" stroke-width="1"/><line x1="684.085" y1="149.87" x2="684.085" y2="56.6" stroke="#222222" stroke-width="1"/><text x="689.085" y="60.6" font-family="Noto Sans KR, Malgun Gothic, sans-serif" font-size="8">UP</text></g>
<polygon data-id="remote-stair-2" data-kind="stair" data-layer="core" points="147.9,270.0 254.17,270.0 254.17,208.01 147.9,208.01" fill="white" stroke="#202020" stroke-width="4"/><g data-symbol="stair-treads"><line x1="150.9" y1="216.8657142857143" x2="251.17" y2="216.8657142857143" stroke="#555555" stroke-width="1"/><line x1="150.9" y1="225.72142857142856" x2="251.17" y2="225.72142857142856" stroke="#555555" stroke-width="1"/><line x1="150.9" y1="234.57714285714286" x2="251.17" y2="234.57714285714286" stroke="#555555" stroke-width="1"/><line x1="150.9" y1="243.43285714285713" x2="251.17" y2="243.43285714285713" stroke="#555555" stroke-width="1"/><line x1="150.9" y1="252.28857142857143" x2="251.17" y2="252.28857142857143" stroke="#555555" stroke-width="1"/><line x1="150.9" y1="261.14428571428573" x2="251.17" y2="261.14428571428573" stroke="#555555" stroke-width="1"/><line x1="201.035" y1="265.0" x2="201.035" y2="216.01" stroke="#222222" stroke-width="1"/><text x="206.035" y="220.01" font-family="Noto Sans KR, Malgun Gothic, sans-serif" font-size="8">UP</text></g>
<polygon data-id="core-elevator" data-kind="elevator" data-layer="core" points="715.08,101.74 736.82,101.74 736.82,48.6 715.08,48.6" fill="white" stroke="#202020" stroke-width="4"/><g data-symbol="elevator-car"><rect x="719.08" y="52.6" width="13.740000000000009" height="45.13999999999999" fill="none" stroke="#555555" stroke-width="1"/><line x1="725.95" y1="97.74" x2="725.95" y2="101.74" stroke="#222222" stroke-width="2"/></g>
<polygon data-id="core-shaft" data-kind="shaft" data-layer="core" points="736.82,101.74 750.11,101.74 750.11,48.6 736.82,48.6" fill="white" stroke="#202020" stroke-width="4"/>
<polygon data-id="core-lobby" data-kind="lobby" data-layer="core" points="653.09,270.0 812.1,270.0 812.1,154.87 750.11,154.87 750.11,101.74 715.08,101.74 715.08,154.87 653.09,154.87" fill="white" stroke="#202020" stroke-width="4"/>
</g>
<g data-layer="structure">
<polygon data-id="column-1" data-kind="column" data-layer="structure" points="276.31,362.99 285.17,362.99 285.17,354.13 276.31,354.13" fill="#555555" stroke="#111111" stroke-width="2"/>
<polygon data-id="column-2" data-kind="column" data-layer="structure" points="276.31,230.15 285.17,230.15 285.17,221.29 276.31,221.29" fill="#555555" stroke="#111111" stroke-width="2"/>
<polygon data-id="column-3" data-kind="column" data-layer="structure" points="276.31,97.31 285.17,97.31 285.17,88.45 276.31,88.45" fill="#555555" stroke="#111111" stroke-width="2"/>
<polygon data-id="column-4" data-kind="column" data-layer="structure" points="409.15,362.99 418.01,362.99 418.01,354.13 409.15,354.13" fill="#555555" stroke="#111111" stroke-width="2"/>
<polygon data-id="column-5" data-kind="column" data-layer="structure" points="409.15,230.15 418.01,230.15 418.01,221.29 409.15,221.29" fill="#555555" stroke="#111111" stroke-width="2"/>
<polygon data-id="column-6" data-kind="column" data-layer="structure" points="409.15,97.31 418.01,97.31 418.01,88.45 409.15,88.45" fill="#555555" stroke="#111111" stroke-width="2"/>
<polygon data-id="column-7" data-kind="column" data-layer="structure" points="541.99,362.99 550.85,362.99 550.85,354.13 541.99,354.13" fill="#555555" stroke="#111111" stroke-width="2"/>
<polygon data-id="column-8" data-kind="column" data-layer="structure" points="541.99,230.15 550.85,230.15 550.85,221.29 541.99,221.29" fill="#555555" stroke="#111111" stroke-width="2"/>
<polygon data-id="column-9" data-kind="column" data-layer="structure" points="541.99,97.31 550.85,97.31 550.85,88.45 541.99,88.45" fill="#555555" stroke="#111111" stroke-width="2"/>
<polygon data-id="column-10" data-kind="column" data-layer="structure" points="674.83,362.99 683.69,362.99 683.69,354.13 674.83,354.13" fill="#555555" stroke="#111111" stroke-width="2"/>
</g>
<g data-layer="envelope">
<g data-id="sales_a-commercial-entrance" data-kind="entrance" data-layer="envelope" data-symbol="entrance-door"><polyline points="287.38,491.4 327.23,491.4" fill="none" stroke="white" stroke-width="8"/><line x1="287.38" y1="491.4" x2="287.38" y2="451.54999999999995" stroke="#222222" stroke-width="2"/><path d="M 327.23 491.4 Q 305.3125 469.48249999999996 287.38 451.54999999999995" fill="none" stroke="#777777" stroke-width="1"/><text x="307.305" y="511.4" font-family="Noto Sans KR, Malgun Gothic, sans-serif" font-size="9" text-anchor="middle">임대 출입</text></g>
<g data-id="sales_b-commercial-entrance" data-kind="entrance" data-layer="envelope" data-symbol="entrance-door"><polyline points="632.77,491.4 672.62,491.4" fill="none" stroke="white" stroke-width="8"/><line x1="632.77" y1="491.4" x2="632.77" y2="451.54999999999995" stroke="#222222" stroke-width="2"/><path d="M 672.62 491.4 Q 650.7025 469.48249999999996 632.77 451.54999999999995" fill="none" stroke="#777777" stroke-width="1"/><text x="652.6949999999999" y="511.4" font-family="Noto Sans KR, Malgun Gothic, sans-serif" font-size="9" text-anchor="middle">임대 출입</text></g>
<g data-id="core-public-entrance" data-kind="entrance" data-layer="envelope" data-symbol="entrance-door"><polyline points="470.04,491.4 489.96,491.4" fill="none" stroke="white" stroke-width="8"/><line x1="470.04" y1="491.4" x2="470.04" y2="471.48" stroke="#222222" stroke-width="2"/><path d="M 489.96 491.4 Q 479.004 480.444 470.04 471.48" fill="none" stroke="#777777" stroke-width="1"/><text x="480.0" y="511.4" font-family="Noto Sans KR, Malgun Gothic, sans-serif" font-size="9" text-anchor="middle">공용 출입</text></g>
<g data-id="sales_a-window" data-kind="window" data-layer="envelope" data-symbol="window-double-line"><polyline points="145.9,410.59 145.9,377.38" fill="none" stroke="#222222" stroke-width="1"/><polyline points="149.9,410.59 149.9,377.38" fill="none" stroke="#222222" stroke-width="1"/></g>
<g data-id="sales_b-window" data-kind="window" data-layer="envelope" data-symbol="window-double-line"><polyline points="810.1,410.59 810.1,377.38" fill="none" stroke="#222222" stroke-width="1"/><polyline points="814.1,410.59 814.1,377.38" fill="none" stroke="#222222" stroke-width="1"/></g>
<g data-id="restroom-window" data-kind="window" data-layer="envelope" data-symbol="window-double-line"><polyline points="321.51,46.6 349.9,46.6" fill="none" stroke="#222222" stroke-width="1"/><polyline points="321.51,50.6 349.9,50.6" fill="none" stroke="#222222" stroke-width="1"/></g>
<g data-id="staff-window" data-kind="window" data-layer="envelope" data-symbol="window-double-line"><polyline points="378.29,46.6 406.69,46.6" fill="none" stroke="#222222" stroke-width="1"/><polyline points="378.29,50.6 406.69,50.6" fill="none" stroke="#222222" stroke-width="1"/></g>
<g data-id="stock-window" data-kind="window" data-layer="envelope" data-symbol="window-double-line"><polyline points="461.07,46.6 494.28,46.6" fill="none" stroke="#222222" stroke-width="1"/><polyline points="461.07,50.6 494.28,50.6" fill="none" stroke="#222222" stroke-width="1"/></g>
<g data-id="utility-window" data-kind="window" data-layer="envelope" data-symbol="window-double-line"><polyline points="557.61,46.6 590.82,46.6" fill="none" stroke="#222222" stroke-width="1"/><polyline points="557.61,50.6 590.82,50.6" fill="none" stroke="#222222" stroke-width="1"/></g>
</g>
<g data-layer="door-openings">
<g data-id="protected-exit-1" data-kind="protected_exit" data-layer="door-openings" data-symbol="door-swing"><polyline points="722.63,270.0 742.56,270.0" fill="none" stroke="white" stroke-width="8"/><line x1="722.63" y1="270.0" x2="722.63" y2="289.92999999999995" stroke="#222222" stroke-width="2"/><path d="M 742.56 270.0 Q 731.5985 280.9615 722.63 289.92999999999995" fill="none" stroke="#777777" stroke-width="1"/></g>
<g data-id="protected-exit-2" data-kind="protected_exit" data-layer="door-openings" data-symbol="door-swing"><polyline points="147.9,270.0 167.83,270.0" fill="none" stroke="white" stroke-width="8"/><line x1="147.9" y1="270.0" x2="147.9" y2="289.93" stroke="#222222" stroke-width="2"/><path d="M 167.83 270.0 Q 156.8685 280.9615 147.9 289.93" fill="none" stroke="#777777" stroke-width="1"/></g>
<g data-id="sales_a-door" data-kind="door-opening" data-layer="door-openings" data-symbol="door-swing" aria-label="sales_a door clear width 0.9 m"><polyline points="297.35,296.57 317.27,296.57" fill="none" stroke="white" stroke-width="8"/><line x1="297.35" y1="296.57" x2="297.35" y2="316.48999999999995" stroke="#222222" stroke-width="2"/><path d="M 317.27 296.57 Q 306.314 307.52599999999995 297.35 316.48999999999995" fill="none" stroke="#777777" stroke-width="1"/></g>
<g data-id="sales_b-door" data-kind="door-opening" data-layer="door-openings" data-symbol="door-swing" aria-label="sales_b door clear width 0.9 m"><polyline points="642.73,296.57 662.65,296.57" fill="none" stroke="white" stroke-width="8"/><line x1="642.73" y1="296.57" x2="642.73" y2="316.48999999999995" stroke="#222222" stroke-width="2"/><path d="M 662.65 296.57 Q 651.694 307.52599999999995 642.73 316.48999999999995" fill="none" stroke="#777777" stroke-width="1"/></g>
<g data-id="core-door" data-kind="door-opening" data-layer="door-openings" data-symbol="door-swing" aria-label="core door clear width 0.9 m"><polyline points="722.63,270.0 742.56,270.0" fill="none" stroke="white" stroke-width="8"/><line x1="722.63" y1="270.0" x2="722.63" y2="289.92999999999995" stroke="#222222" stroke-width="2"/><path d="M 742.56 270.0 Q 731.5985 280.9615 722.63 289.92999999999995" fill="none" stroke="#777777" stroke-width="1"/></g>
<g data-id="checkout-door" data-kind="door-opening" data-layer="door-openings" data-symbol="door-swing" aria-label="checkout door clear width 0.9 m"><polyline points="270.78,270.0 290.7,270.0" fill="none" stroke="white" stroke-width="8"/><line x1="270.78" y1="270.0" x2="270.78" y2="289.92" stroke="#222222" stroke-width="2"/><path d="M 290.7 270.0 Q 279.74399999999997 280.956 270.78 289.92" fill="none" stroke="#777777" stroke-width="1"/></g>
<g data-id="restroom-door" data-kind="door-opening" data-layer="door-openings" data-symbol="door-swing" aria-label="restroom door clear width 0.9 m"><polyline points="325.74,270.0 345.67,270.0" fill="none" stroke="white" stroke-width="8"/><line x1="325.74" y1="270.0" x2="325.74" y2="289.93" stroke="#222222" stroke-width="2"/><path d="M 345.67 270.0 Q 334.7085 280.9615 325.74 289.93" fill="none" stroke="#777777" stroke-width="1"/></g>
<g data-id="staff-door" data-kind="door-opening" data-layer="door-openings" data-symbol="door-swing" aria-label="staff door clear width 0.9 m"><polyline points="382.53,270.0 402.45,270.0" fill="none" stroke="white" stroke-width="8"/><line x1="382.53" y1="270.0" x2="382.53" y2="289.92" stroke="#222222" stroke-width="2"/><path d="M 402.45 270.0 Q 391.49399999999997 280.956 382.53 289.92" fill="none" stroke="#777777" stroke-width="1"/></g>
<g data-id="stock-door" data-kind="door-opening" data-layer="door-openings" data-symbol="door-swing" aria-label="stock door clear width 0.9 m"><polyline points="467.71,270.0 487.64,270.0" fill="none" stroke="white" stroke-width="8"/><line x1="467.71" y1="270.0" x2="467.71" y2="289.93" stroke="#222222" stroke-width="2"/><path d="M 487.64 270.0 Q 476.6785 280.9615 467.71 289.93" fill="none" stroke="#777777" stroke-width="1"/></g>
<g data-id="utility-door" data-kind="door-opening" data-layer="door-openings" data-symbol="door-swing" aria-label="utility door clear width 0.9 m"><polyline points="564.25,270.0 584.18,270.0" fill="none" stroke="white" stroke-width="8"/><line x1="564.25" y1="270.0" x2="564.25" y2="289.92999999999995" stroke="#222222" stroke-width="2"/><path d="M 584.18 270.0 Q 573.2185 280.9615 564.25 289.92999999999995" fill="none" stroke="#777777" stroke-width="1"/></g>
</g>
<g data-layer="furniture">
<polygon data-id="sales_a-sales_shelf-1" data-kind="sales_shelf" data-layer="furniture" points="154.54,484.76 198.82,484.76 198.82,469.26 154.54,469.26" fill="white" stroke="#666666" stroke-width="1"/><g data-symbol="furniture"><line x1="157.54" y1="477.01" x2="195.82" y2="477.01" stroke="#777777" stroke-width="1"/><circle cx="176.68" cy="477.01" r="2.5" fill="none" stroke="#777777" stroke-width="1"/></g>
<polygon data-id="sales_a-sales_shelf-2" data-kind="sales_shelf" data-layer="furniture" points="367.09,338.63 411.37,338.63 411.37,323.14 367.09,323.14" fill="white" stroke="#666666" stroke-width="1"/><g data-symbol="furniture"><line x1="370.09" y1="330.885" x2="408.37" y2="330.885" stroke="#777777" stroke-width="1"/><circle cx="389.23" cy="330.885" r="2.5" fill="none" stroke="#777777" stroke-width="1"/></g>
<polygon data-id="sales_a-sales_shelf-3" data-kind="sales_shelf" data-layer="furniture" points="207.68,338.63 251.96,338.63 251.96,323.14 207.68,323.14" fill="white" stroke="#666666" stroke-width="1"/><g data-symbol="furniture"><line x1="210.68" y1="330.885" x2="248.96" y2="330.885" stroke="#777777" stroke-width="1"/><circle cx="229.82" cy="330.885" r="2.5" fill="none" stroke="#777777" stroke-width="1"/></g>
<polygon data-id="sales_a-sales_shelf-4" data-kind="sales_shelf" data-layer="furniture" points="367.09,484.76 411.37,484.76 411.37,469.26 367.09,469.26" fill="white" stroke="#666666" stroke-width="1"/><g data-symbol="furniture"><line x1="370.09" y1="477.01" x2="408.37" y2="477.01" stroke="#777777" stroke-width="1"/><circle cx="389.23" cy="477.01" r="2.5" fill="none" stroke="#777777" stroke-width="1"/></g>
<polygon data-id="sales_a-sales_shelf-5" data-kind="sales_shelf" data-layer="furniture" points="207.68,411.7 251.96,411.7 251.96,396.2 207.68,396.2" fill="white" stroke="#666666" stroke-width="1"/><g data-symbol="furniture"><line x1="210.68" y1="403.95" x2="248.96" y2="403.95" stroke="#777777" stroke-width="1"/><circle cx="229.82" cy="403.95" r="2.5" fill="none" stroke="#777777" stroke-width="1"/></g>
<polygon data-id="sales_b-sales_shelf-6" data-kind="sales_shelf" data-layer="furniture" points="553.06,484.76 597.34,484.76 597.34,469.26 553.06,469.26" fill="white" stroke="#666666" stroke-width="1"/><g data-symbol="furniture"><line x1="556.06" y1="477.01" x2="594.34" y2="477.01" stroke="#777777" stroke-width="1"/><circle cx="575.2" cy="477.01" r="2.5" fill="none" stroke="#777777" stroke-width="1"/></g>
<polygon data-id="sales_b-sales_shelf-7" data-kind="sales_shelf" data-layer="furniture" points="712.47,338.63 756.75,338.63 756.75,323.14 712.47,323.14" fill="white" stroke="#666666" stroke-width="1"/><g data-symbol="furniture"><line x1="715.47" y1="330.885" x2="753.75" y2="330.885" stroke="#777777" stroke-width="1"/><circle cx="734.61" cy="330.885" r="2.5" fill="none" stroke="#777777" stroke-width="1"/></g>
<polygon data-id="sales_b-sales_shelf-8" data-kind="sales_shelf" data-layer="furniture" points="499.93,338.63 544.21,338.63 544.21,323.14 499.93,323.14" fill="white" stroke="#666666" stroke-width="1"/><g data-symbol="furniture"><line x1="502.93" y1="330.885" x2="541.21" y2="330.885" stroke="#777777" stroke-width="1"/><circle cx="522.07" cy="330.885" r="2.5" fill="none" stroke="#777777" stroke-width="1"/></g>
<polygon data-id="sales_b-sales_shelf-9" data-kind="sales_shelf" data-layer="furniture" points="712.47,484.76 756.75,484.76 756.75,469.26 712.47,469.26" fill="white" stroke="#666666" stroke-width="1"/><g data-symbol="furniture"><line x1="715.47" y1="477.01" x2="753.75" y2="477.01" stroke="#777777" stroke-width="1"/><circle cx="734.61" cy="477.01" r="2.5" fill="none" stroke="#777777" stroke-width="1"/></g>
<polygon data-id="sales_b-sales_shelf-10" data-kind="sales_shelf" data-layer="furniture" points="553.06,411.7 597.34,411.7 597.34,396.2 553.06,396.2" fill="white" stroke="#666666" stroke-width="1"/><g data-symbol="furniture"><line x1="556.06" y1="403.95" x2="594.34" y2="403.95" stroke="#777777" stroke-width="1"/><circle cx="575.2" cy="403.95" r="2.5" fill="none" stroke="#777777" stroke-width="1"/></g>
<polygon data-id="checkout-checkout_counter-1" data-kind="checkout_counter" data-layer="furniture" points="261.92,229.04 271.88,229.04 271.88,213.54 261.92,213.54" fill="white" stroke="#666666" stroke-width="1"/><g data-symbol="furniture"><line x1="264.92" y1="221.29" x2="268.88" y2="221.29" stroke="#777777" stroke-width="1"/><circle cx="266.9" cy="221.29" r="2.5" fill="none" stroke="#777777" stroke-width="1"/></g>
<polygon data-id="staff-staff_table-1" data-kind="staff_table" data-layer="furniture" points="371.85,229.04 382.07,229.04 382.07,213.54 371.85,213.54" fill="white" stroke="#666666" stroke-width="1"/><g data-symbol="furniture"><line x1="374.85" y1="221.29" x2="379.07" y2="221.29" stroke="#777777" stroke-width="1"/><circle cx="376.96000000000004" cy="221.29" r="2.5" fill="none" stroke="#777777" stroke-width="1"/></g>
<polygon data-id="stock-stock_rack-1" data-kind="stock_rack" data-layer="furniture" points="428.64,229.04 449.08,229.04 449.08,213.54 428.64,213.54" fill="white" stroke="#666666" stroke-width="1"/><g data-symbol="furniture"><line x1="431.64" y1="221.29" x2="446.08" y2="221.29" stroke="#777777" stroke-width="1"/><circle cx="438.86" cy="221.29" r="2.5" fill="none" stroke="#777777" stroke-width="1"/></g>
<polygon data-id="stock-stock_rack-2" data-kind="stock_rack" data-layer="furniture" points="506.27,96.2 526.72,96.2 526.72,80.7 506.27,80.7" fill="white" stroke="#666666" stroke-width="1"/><g data-symbol="furniture"><line x1="509.27" y1="88.45" x2="523.72" y2="88.45" stroke="#777777" stroke-width="1"/><circle cx="516.495" cy="88.45" r="2.5" fill="none" stroke="#777777" stroke-width="1"/></g>
</g>
<g data-layer="fixtures">
<polygon data-id="restroom-wc-1" data-kind="wc" data-layer="fixtures" points="315.06,229.04 325.28,229.04 325.28,213.54 315.06,213.54" fill="white" stroke="#666666" stroke-width="1"/><g data-symbol="fixture"><ellipse cx="320.16999999999996" cy="221.29" rx="2.861599999999992" ry="4.340000000000001" fill="none" stroke="#666666" stroke-width="1"/><line x1="320.16999999999996" y1="215.54" x2="320.16999999999996" y2="221.29" stroke="#666666" stroke-width="1"/></g>
<polygon data-id="restroom-lavatory-1" data-kind="lavatory" data-layer="fixtures" points="346.13,96.2 356.35,96.2 356.35,80.7 346.13,80.7" fill="white" stroke="#666666" stroke-width="1"/><g data-symbol="fixture"><ellipse cx="351.24" cy="88.45" rx="2.8616000000000077" ry="4.340000000000001" fill="none" stroke="#666666" stroke-width="1"/><line x1="351.24" y1="82.7" x2="351.24" y2="88.45" stroke="#666666" stroke-width="1"/></g>
<polygon data-id="utility-utility_equipment-1" data-kind="utility_equipment" data-layer="fixtures" points="574.24,229.04 588.55,229.04 588.55,213.54 574.24,213.54" fill="white" stroke="#666666" stroke-width="1"/><g data-symbol="fixture"><ellipse cx="581.395" cy="221.29" rx="4.006799999999985" ry="4.340000000000001" fill="none" stroke="#666666" stroke-width="1"/><line x1="581.395" y1="215.54" x2="581.395" y2="221.29" stroke="#666666" stroke-width="1"/></g>
</g>
<g data-layer="egress">
<g data-id="core-stair-door-1" data-kind="stair_door" data-layer="egress"><polyline points="674.12,154.87 694.05,154.87" fill="none" stroke="#777777" stroke-width="1" stroke-dasharray="7 5"/></g>
<g data-id="core-lobby-route-1" data-kind="lobby_route" data-layer="egress"><polyline points="732.6,270.0 732.6,154.87 684.09,154.87" fill="none" stroke="#777777" stroke-width="1" stroke-dasharray="7 5"/></g>
<g data-id="sales_a-route-1" data-kind="egress_route" data-layer="egress"><polyline points="307.31,296.57 732.6,296.57 732.6,270.0" fill="none" stroke="#777777" stroke-width="1" stroke-dasharray="7 5"/></g>
<g data-id="sales_a-route-2" data-kind="egress_route" data-layer="egress"><polyline points="307.31,296.57 157.86,296.57 157.86,270.0" fill="none" stroke="#777777" stroke-width="1" stroke-dasharray="7 5"/></g>
<g data-id="sales_b-route-1" data-kind="egress_route" data-layer="egress"><polyline points="652.69,296.57 732.6,296.57 732.6,270.0" fill="none" stroke="#777777" stroke-width="1" stroke-dasharray="7 5"/></g>
<g data-id="sales_b-route-2" data-kind="egress_route" data-layer="egress"><polyline points="652.69,296.57 157.86,296.57 157.86,270.0" fill="none" stroke="#777777" stroke-width="1" stroke-dasharray="7 5"/></g>
<g data-id="checkout-route-1" data-kind="egress_route" data-layer="egress"><polyline points="280.74,270.0 732.6,270.0" fill="none" stroke="#777777" stroke-width="1" stroke-dasharray="7 5"/></g>
<g data-id="checkout-route-2" data-kind="egress_route" data-layer="egress"><polyline points="280.74,270.0 157.86,270.0" fill="none" stroke="#777777" stroke-width="1" stroke-dasharray="7 5"/></g>
<g data-id="restroom-route-1" data-kind="egress_route" data-layer="egress"><polyline points="335.7,270.0 732.6,270.0" fill="none" stroke="#777777" stroke-width="1" stroke-dasharray="7 5"/></g>
<g data-id="restroom-route-2" data-kind="egress_route" data-layer="egress"><polyline points="335.7,270.0 157.86,270.0" fill="none" stroke="#777777" stroke-width="1" stroke-dasharray="7 5"/></g>
<g data-id="staff-route-1" data-kind="egress_route" data-layer="egress"><polyline points="392.49,270.0 732.6,270.0" fill="none" stroke="#777777" stroke-width="1" stroke-dasharray="7 5"/></g>
<g data-id="staff-route-2" data-kind="egress_route" data-layer="egress"><polyline points="392.49,270.0 157.86,270.0" fill="none" stroke="#777777" stroke-width="1" stroke-dasharray="7 5"/></g>
<g data-id="stock-route-1" data-kind="egress_route" data-layer="egress"><polyline points="477.68,270.0 732.6,270.0" fill="none" stroke="#777777" stroke-width="1" stroke-dasharray="7 5"/></g>
<g data-id="stock-route-2" data-kind="egress_route" data-layer="egress"><polyline points="477.68,270.0 157.86,270.0" fill="none" stroke="#777777" stroke-width="1" stroke-dasharray="7 5"/></g>
<g data-id="utility-route-1" data-kind="egress_route" data-layer="egress"><polyline points="574.22,270.0 732.6,270.0" fill="none" stroke="#777777" stroke-width="1" stroke-dasharray="7 5"/></g>
<g data-id="utility-route-2" data-kind="egress_route" data-layer="egress"><polyline points="574.22,270.0 157.86,270.0" fill="none" stroke="#777777" stroke-width="1" stroke-dasharray="7 5"/></g>
</g>
<g data-layer="dimensions">
<g data-id="dimension-overall-width" data-kind="overall_width" data-layer="dimensions" data-symbol="dimension-chain"><polyline points="147.9,491.4 812.1,491.4" fill="none" stroke="#333333" stroke-width="1"/><line x1="147.9" y1="486.4" x2="147.9" y2="496.4" stroke="#333333" stroke-width="1"/><line x1="812.1" y1="486.4" x2="812.1" y2="496.4" stroke="#333333" stroke-width="1"/><text x="480.0" y="515.4" font-family="Noto Sans KR, Malgun Gothic, sans-serif" font-size="9" text-anchor="middle">30 m</text></g>
<g data-id="dimension-overall-depth" data-kind="overall_depth" data-layer="dimensions" data-symbol="dimension-chain"><polyline points="147.9,491.4 147.9,48.6" fill="none" stroke="#333333" stroke-width="1"/><line x1="142.9" y1="491.4" x2="152.9" y2="491.4" stroke="#333333" stroke-width="1"/><line x1="142.9" y1="48.6" x2="152.9" y2="48.6" stroke="#333333" stroke-width="1"/><text x="119.9" y="270.0" font-family="Noto Sans KR, Malgun Gothic, sans-serif" font-size="9" text-anchor="middle">20 m</text></g>
<g data-id="dimension-circulation-width" data-kind="circulation_width" data-layer="dimensions" data-symbol="dimension-chain"><polyline points="147.9,48.6 174.47,48.6" fill="none" stroke="#333333" stroke-width="1"/><line x1="147.9" y1="43.6" x2="147.9" y2="53.6" stroke="#333333" stroke-width="1"/><line x1="174.47" y1="43.6" x2="174.47" y2="53.6" stroke="#333333" stroke-width="1"/></g>
<g data-id="north-arrow" data-kind="north_arrow" data-layer="dimensions" data-symbol="dimension-chain"><polyline points="789.96,88.45 789.96,61.88" fill="none" stroke="#333333" stroke-width="1"/><line x1="784.96" y1="88.45" x2="794.96" y2="88.45" stroke="#333333" stroke-width="1"/><line x1="784.96" y1="61.88" x2="794.96" y2="61.88" stroke="#333333" stroke-width="1"/><text x="789.96" y="67.165" font-family="Noto Sans KR, Malgun Gothic, sans-serif" font-size="9" text-anchor="middle">N</text></g>
<g data-id="scale-line" data-kind="scale_line" data-layer="dimensions" data-symbol="dimension-chain"><polyline points="165.61,473.69 276.31,473.69" fill="none" stroke="#333333" stroke-width="1"/><line x1="165.61" y1="468.69" x2="165.61" y2="478.69" stroke="#333333" stroke-width="1"/><line x1="276.31" y1="468.69" x2="276.31" y2="478.69" stroke="#333333" stroke-width="1"/></g>
<g data-id="street-line" data-kind="street" data-layer="dimensions" data-symbol="dimension-chain"><polyline points="147.9,491.4 812.1,491.4" fill="none" stroke="#333333" stroke-width="1"/><line x1="147.9" y1="486.4" x2="147.9" y2="496.4" stroke="#333333" stroke-width="1"/><line x1="812.1" y1="486.4" x2="812.1" y2="496.4" stroke="#333333" stroke-width="1"/><text x="480.0" y="519.4" font-family="Noto Sans KR, Malgun Gothic, sans-serif" font-size="9" text-anchor="middle">도로</text></g>
</g>
<g data-layer="text-labels">
<text data-id="sales_a-label" data-kind="room-label" data-layer="text-labels" x="307.31" y="393.98" font-family="Noto Sans KR, Malgun Gothic, sans-serif" font-size="10" text-anchor="middle"><tspan x="307.31" dy="0">판매공간</tspan><tspan x="307.31" dy="12">126.72 m2</tspan></text>
<text data-id="sales_b-label" data-kind="room-label" data-layer="text-labels" x="652.69" y="393.98" font-family="Noto Sans KR, Malgun Gothic, sans-serif" font-size="10" text-anchor="middle"><tspan x="652.69" dy="0">판매공간</tspan><tspan x="652.69" dy="12">126.72 m2</tspan></text>
<text data-id="core-label" data-kind="room-label" data-layer="text-labels" x="732.6" y="159.3" font-family="Noto Sans KR, Malgun Gothic, sans-serif" font-size="10" text-anchor="middle"><tspan x="732.6" dy="0">코어</tspan><tspan x="732.6" dy="12">71.82 m2</tspan></text>
<text data-id="checkout-label" data-kind="room-label" data-layer="text-labels" x="280.74" y="175.35" font-family="Noto Sans KR, Malgun Gothic, sans-serif" font-size="10" text-anchor="middle"><tspan x="280.74" dy="0">계산대</tspan><tspan x="280.74" dy="12">20.52 m2</tspan></text>
<text data-id="restroom-label" data-kind="room-label" data-layer="text-labels" x="335.7" y="159.3" font-family="Noto Sans KR, Malgun Gothic, sans-serif" font-size="10" text-anchor="middle"><tspan x="335.7" dy="0">화장실</tspan><tspan x="335.7" dy="12">25.65 m2</tspan></text>
<text data-id="staff-label" data-kind="room-label" data-layer="text-labels" x="392.49" y="159.3" font-family="Noto Sans KR, Malgun Gothic, sans-serif" font-size="10" text-anchor="middle"><tspan x="392.49" dy="0">직원실</tspan><tspan x="392.49" dy="12">25.65 m2</tspan></text>
<text data-id="stock-label" data-kind="room-label" data-layer="text-labels" x="477.68" y="159.3" font-family="Noto Sans KR, Malgun Gothic, sans-serif" font-size="10" text-anchor="middle"><tspan x="477.68" dy="0">창고</tspan><tspan x="477.68" dy="12">51.3 m2</tspan></text>
<text data-id="utility-label" data-kind="room-label" data-layer="text-labels" x="574.22" y="159.3" font-family="Noto Sans KR, Malgun Gothic, sans-serif" font-size="10" text-anchor="middle"><tspan x="574.22" dy="0">설비실</tspan><tspan x="574.22" dy="12">35.91 m2</tspan></text>
<text data-id="corridor-branch-label" data-kind="circulation" data-layer="text-labels" x="267.46" y="283.28" font-family="Noto Sans KR, Malgun Gothic, sans-serif" font-size="10" text-anchor="middle">복도</text>
<g data-id="sales_a-door-width-label" data-kind="door-width" data-layer="text-labels"></g>
<g data-id="sales_b-door-width-label" data-kind="door-width" data-layer="text-labels"></g>
<g data-id="core-door-width-label" data-kind="door-width" data-layer="text-labels"></g>
<g data-id="checkout-door-width-label" data-kind="door-width" data-layer="text-labels"></g>
<g data-id="restroom-door-width-label" data-kind="door-width" data-layer="text-labels"></g>
<g data-id="staff-door-width-label" data-kind="door-width" data-layer="text-labels"></g>
<g data-id="stock-door-width-label" data-kind="door-width" data-layer="text-labels"></g>
<g data-id="utility-door-width-label" data-kind="door-width" data-layer="text-labels"></g>
<text data-id="core-stair-1-label" data-kind="core-label" data-layer="text-labels" x="684.09" y="101.74" font-family="Noto Sans KR, Malgun Gothic, sans-serif" font-size="10" text-anchor="middle">계단실</text>
<text data-id="remote-stair-2-label" data-kind="core-label" data-layer="text-labels" x="201.04" y="239.0" font-family="Noto Sans KR, Malgun Gothic, sans-serif" font-size="10" text-anchor="middle">계단실</text>
<text data-id="core-elevator-label" data-kind="core-label" data-layer="text-labels" x="725.95" y="75.17" font-family="Noto Sans KR, Malgun Gothic, sans-serif" font-size="10" text-anchor="middle">승강기</text>
<text data-id="core-shaft-label" data-kind="core-label" data-layer="text-labels" x="743.47" y="75.17" font-family="Noto Sans KR, Malgun Gothic, sans-serif" font-size="10" text-anchor="middle">샤프트</text>
<text data-id="core-lobby-label" data-kind="core-label" data-layer="text-labels" x="732.6" y="170.37" font-family="Noto Sans KR, Malgun Gothic, sans-serif" font-size="10" text-anchor="middle">로비</text>
</g>
</svg>