<svg xmlns="http://www.w3.org/2000/svg" width="100%" height="100%" viewBox="0 0 960 540">
<rect width="100%" height="100%" fill="white"/>
<g data-layer="grid">
<g data-id="grid-x-0" data-kind="grid" data-layer="grid"><polyline points="147.9,491.4 147.9,48.6" fill="none" stroke="#888888" stroke-width="1" stroke-dasharray="4 5"/><text x="147.9" y="503.4" font-family="Noto Sans KR, Malgun Gothic, sans-serif" font-size="9" text-anchor="middle">A</text></g>
<g data-id="grid-x-1" data-kind="grid" data-layer="grid"><polyline points="280.74,491.4 280.74,48.6" fill="none" stroke="#888888" stroke-width="1" stroke-dasharray="4 5"/><text x="280.74" y="503.4" font-family="Noto Sans KR, Malgun Gothic, sans-serif" font-size="9" text-anchor="middle">B</text></g>
<g data-id="grid-x-2" data-kind="grid" data-layer="grid"><polyline points="413.58,491.4 413.58,48.6" fill="none" stroke="#888888" stroke-width="1" stroke-dasharray="4 5"/><text x="413.58" y="503.4" font-family="Noto Sans KR, Malgun Gothic, sans-serif" font-size="9" text-anchor="middle">C</text></g>
<g data-id="grid-x-3" data-kind="grid" data-layer="grid"><polyline points="546.42,491.4 546.42,48.6" fill="none" stroke="#888888" stroke-width="1" stroke-dasharray="4 5"/><text x="546.42" y="503.4" font-family="Noto Sans KR, Malgun Gothic, sans-serif" font-size="9" text-anchor="middle">D</text></g>
<g data-id="grid-x-4" data-kind="grid" data-layer="grid"><polyline points="679.26,491.4 679.26,48.6" fill="none" stroke="#888888" stroke-width="1" stroke-dasharray="4 5"/><text x="679.26" y="503.4" font-family="Noto Sans KR, Malgun Gothic, sans-serif" font-size="9" text-anchor="middle">E</text></g>
<g data-id="grid-x-5" data-kind="grid" data-layer="grid"><polyline points="812.1,491.4 812.1,48.6" fill="none" stroke="#888888" stroke-width="1" stroke-dasharray="4 5"/><text x="812.1" y="503.4" font-family="Noto Sans KR, Malgun Gothic, sans-serif" font-size="9" text-anchor="middle">F</text></g>
<g data-id="grid-y-0" data-kind="grid" data-layer="grid"><polyline points="147.9,491.4 812.1,491.4" fill="none" stroke="#888888" stroke-width="1" stroke-dasharray="4 5"/><text x="135.9" y="491.4" font-family="Noto Sans KR, Malgun Gothic, sans-serif" font-size="9" text-anchor="middle">1</text></g>
<g data-id="grid-y-1" data-kind="grid" data-layer="grid"><polyline points="147.9,358.56 812.1,358.56" fill="none" stroke="#888888" stroke-width="1" stroke-dasharray="4 5"/><text x="135.9" y="358.56" font-family="Noto Sans KR, Malgun Gothic, sans-serif" font-size="9" text-anchor="middle">2</text></g>
<g data-id="grid-y-2" data-kind="grid" data-layer="grid"><polyline points="147.9,225.72 812.1,225.72" fill="none" stroke="#888888" stroke-width="1" stroke-dasharray="4 5"/><text x="135.9" y="225.72" font-family="Noto Sans KR, Malgun Gothic, sans-serif" font-size="9" text-anchor="middle">3</text></g>
<g data-id="grid-y-3" data-kind="grid" data-layer="grid"><polyline points="147.9,92.88 812.1,92.88" fill="none" stroke="#888888" stroke-width="1" stroke-dasharray="4 5"/><text x="135.9" y="92.88" font-family="Noto Sans KR, Malgun Gothic, sans-serif" font-size="9" text-anchor="middle">4</text></g>
<g data-id="grid-y-4" data-kind="grid" data-layer="grid"><polyline points="147.9,48.6 812.1,48.6" fill="none" stroke="#888888" stroke-width="1" stroke-dasharray="4 5"/><text x="135.9" y="48.6" font-family="Noto Sans KR, Malgun Gothic, sans-serif" font-size="9" text-anchor="middle">5</text></g>
</g>
<g data-layer="rooms">
<polygon data-id="open_work" data-kind="room" data-layer="rooms" points="147.9,491.4 653.02,491.4 653.02,293.95 147.9,293.95" fill="white" stroke="#202020" stroke-width="4"/>
<polygon data-id="meeting" data-kind="room" data-layer="rooms" points="254.17,267.39 369.11,267.39 369.11,48.6 254.17,48.6" fill="white" stroke="#202020" stroke-width="4"/>
<polygon data-id="reception" data-kind="room" data-layer="rooms" points="369.11,267.39 426.57,267.39 426.57,48.6 369.11,48.6" fill="white" stroke="#202020" stroke-width="4"/>
<polygon data-id="focus" data-kind="room" data-layer="rooms" points="426.57,267.39 495.54,267.39 495.54,48.6 426.57,48.6" fill="white" stroke="#202020" stroke-width="4"/>
<polygon data-id="pantry" data-kind="room" data-layer="rooms" points="495.54,267.39 535.39,267.39 535.39,78.09 495.54,78.09" fill="white" stroke="#202020" stroke-width="4"/>
<polygon data-id="restroom" data-kind="room" data-layer="rooms" points="535.39,267.39 592.86,267.39 592.86,48.6 535.39,48.6" fill="white" stroke="#202020" stroke-width="4"/>
<polygon data-id="it_storage" data-kind="room" data-layer="rooms" points="592.86,267.39 650.32,267.39 650.32,48.6 592.86,48.6" fill="white" stroke="#202020" stroke-width="4"/>
<polygon data-id="core" data-kind="room" data-layer="rooms" points="679.59,402.84 812.1,402.84 812.1,137.16 679.59,137.16" fill="white" stroke="#202020" stroke-width="4"/>
</g>
<polygon data-id="floor-boundary" data-kind="boundary" data-layer="rooms" points="147.9,491.4 812.1,491.4 812.1,48.6 147.9,48.6" fill="none" stroke="#111111" stroke-width="6"/>
<g data-layer="circulation">
<polygon data-id="corridor-cross" data-kind="circulation" data-layer="circulation" points="147.9,293.95 653.02,293.95 653.02,267.39 147.9,267.39" fill="white" stroke="#202020" stroke-width="2"/>
<polygon data-id="corridor-longitudinal" data-kind="circulation" data-layer="circulation" points="653.02,491.4 679.59,491.4 679.59,48.6 653.02,48.6" fill="white" stroke="#202020" stroke-width="2"/>
</g>
<g data-layer="core">
<polygon data-id="core-stair-1" data-kind="stair" data-layer="core" points="705.83,402.84 705.83,340.85 812.1,340.85 812.1,402.84" fill="white" stroke="#202020" stroke-width="4"/><g data-symbol="stair-treads"><line x1="708.83" y1="349.7057142857143" x2="809.1" y2="349.7057142857143" stroke="#555555" stroke-width="1"/><line x1="708.83" y1="358.56142857142856" x2="809.1" y2="358.56142857142856" stroke="#555555" stroke-width="1"/><line x1="708.83" y1="367.41714285714284" x2="809.1" y2="367.41714285714284" stroke="#555555" stroke-width="1"/><line x1="708.83" y1="376.27285714285716" x2="809.1" y2="376.27285714285716" stroke="#555555" stroke-width="1"/><line x1="708.83" y1="385.12857142857143" x2="809.1" y2="385.12857142857143" stroke="#555555" stroke-width="1"/><line x1="708.83" y1="393.9842857142857" x2="809.1" y2="393.9842857142857" stroke="#555555" stroke-width="1"/><line x1="758.965" y1="397.84" x2="758.965" y2="348.85" stroke="#222222" stroke-width="1"/><text x="763.965" y="352.85" font-family="Noto Sans KR, Malgun Gothic, sans-serif" font-size="8">UP</text></g>
<polygon data-id="remote-stair-2" data-kind="stair" data-layer="core" points="147.9,267.39 254.17,267.39 254.17,205.39 147.9,205.39" fill="white" stroke="#202020" stroke-width="4"/><g data-symbol="stair-treads"><line x1="150.9" y1="214.24714285714285" x2="251.17" y2="214.24714285714285" stroke="#555555" stroke-width="1"/><line x1="150.9" y1="223.1042857142857" x2="251.17" y2="223.1042857142857" stroke="#555555" stroke-width="1"/><line x1="150.9" y1="231.96142857142857" x2="251.17" y2="231.96142857142857" stroke="#555555" stroke-width="1"/><line x1="150.9" y1="240.81857142857143" x2="251.17" y2="240.81857142857143" stroke="#555555" stroke-width="1"/><line x1="150.9" y1="249.67571428571426" x2="251.17" y2="249.67571428571426" stroke="#555555" stroke-width="1"/><line x1="150.9" y1="258.53285714285715" x2="251.17" y2="258.53285714285715" stroke="#555555" stroke-width="1"/><line x1="201.035" y1="262.39" x2="201.035" y2="213.39" stroke="#222222" stroke-width="1"/><text x="206.035" y="217.39" font-family="Noto Sans KR, Malgun Gothic, sans-serif" font-size="8">UP</text></g>
<polygon data-id="core-elevator" data-kind="elevator" data-layer="core" points="758.96,340.85 758.96,301.0 812.1,301.0 812.1,340.85" fill="white" stroke="#202020" stroke-width="4"/><g data-symbol="elevator-car"><rect x="762.96" y="305.0" width="45.139999999999986" height="31.850000000000023" fill="none" stroke="#555555" stroke-width="1"/><line x1="785.53" y1="336.85" x2="785.53" y2="340.85" stroke="#222222" stroke-width="2"/></g>
<polygon data-id="core-shaft" data-kind="shaft" data-layer="core" points="758.96,301.0 758.96,199.15 812.1,199.15 812.1,301.0" fill="white" stroke="#202020" stroke-width="4"/>
<polygon data-id="core-lobby" data-kind="lobby" data-layer="core" points="679.59,402.84 679.59,137.16 705.83,137.16 705.83,199.15 758.96,199.15 758.96,340.85 705.83,340.85 705.83,402.84" fill="white" stroke="#202020" stroke-width="4"/>
</g>
<g data-layer="structure">
<polygon data-id="column-1" data-kind="column" data-layer="structure" points="276.31,362.99 285.17,362.99 285.17,354.13 276.31,354.13" fill="#555555" stroke="#111111" stroke-width="2"/>
<polygon data-id="column-2" data-kind="column" data-layer="structure" points="276.31,230.15 285.17,230.15 285.17,221.29 276.31,221.29" fill="#555555" stroke="#111111" stroke-width="2"/>
<polygon data-id="column-3" data-kind="column" data-layer="structure" points="276.31,97.31 285.17,97.31 285.17,88.45 276.31,88.45" fill="#555555" stroke="#111111" stroke-width="2"/>
<polygon data-id="column-4" data-kind="column" data-layer="structure" points="409.15,362.99 418.01,362.99 418.01,354.13 409.15,354.13" fill="#555555" stroke="#111111" stroke-width="2"/>
<polygon data-id="column-5" data-kind="column" data-layer="structure" points="409.15,230.15 418.01,230.15 418.01,221.29 409.15,221.29" fill="#555555" stroke="#111111" stroke-width="2"/>
<polygon data-id="column-6" data-kind="column" data-layer="structure" points="409.15,97.31 418.01,97.31 418.01,88.45 409.15,88.45" fill="#555555" stroke="#111111" stroke-width="2"/>
<polygon data-id="column-7" data-kind="column" data-layer="structure" points="541.99,362.99 550.85,362.99 550.85,354.13 541.99,354.13" fill="#555555" stroke="#111111" stroke-width="2"/>
<polygon data-id="column-8" data-kind="column" data-layer="structure" points="541.99,230.15 550.85,230.15 550.85,221.29 541.99,221.29" fill="#555555" stroke="#111111" stroke-width="2"/>
<polygon data-id="column-9" data-kind="column" data-layer="structure" points="541.99,97.31 550.85,97.31 550.85,88.45 541.99,88.45" fill="#555555" stroke="#111111" stroke-width="2"/>
</g>
<g data-layer="envelope">
<g data-id="open_work-window" data-kind="window" data-layer="envelope" data-symbol="window-double-line"><polyline points="383.86,489.4 417.07,489.4" fill="none" stroke="#222222" stroke-width="1"/><polyline points="383.86,493.4 417.07,493.4" fill="none" stroke="#222222" stroke-width="1"/></g>
<g data-id="meeting-window" data-kind="window" data-layer="envelope" data-symbol="window-double-line"><polyline points="295.03,46.6 328.24,46.6" fill="none" stroke="#222222" stroke-width="1"/><polyline points="295.03,50.6 328.24,50.6" fill="none" stroke="#222222" stroke-width="1"/></g>
<g data-id="reception-window" data-kind="window" data-layer="envelope" data-symbol="window-double-line"><polyline points="383.47,46.6 412.21,46.6" fill="none" stroke="#222222" stroke-width="1"/><polyline points="383.47,50.6 412.21,50.6" fill="none" stroke="#222222" stroke-width="1"/></g>
<g data-id="focus-window" data-kind="window" data-layer="envelope" data-symbol="window-double-line"><polyline points="444.45,46.6 477.66,46.6" fill="none" stroke="#222222" stroke-width="1"/><polyline points="444.45,50.6 477.66,50.6" fill="none" stroke="#222222" stroke-width="1"/></g>
<g data-id="restroom-window" data-kind="window" data-layer="envelope" data-symbol="window-double-line"><polyline points="549.75,46.6 578.49,46.6" fill="none" stroke="#222222" stroke-width="1"/><polyline points="549.75,50.6 578.49,50.6" fill="none" stroke="#222222" stroke-width="1"/></g>
<g data-id="it_storage-window" data-kind="window" data-layer="envelope" data-symbol="window-double-line"><polyline points="607.22,46.6 635.96,46.6" fill="none" stroke="#222222" stroke-width="1"/><polyline points="607.22,50.6 635.96,50.6" fill="none" stroke="#222222" stroke-width="1"/></g>
</g>
<g data-layer="door-openings">
<g data-id="protected-exit-1" data-kind="protected_exit" data-layer="door-openings" data-symbol="door-swing"><polyline points="679.59,279.96 679.59,260.04" fill="none" stroke="white" stroke-width="8"/><line x1="679.59" y1="279.96" x2="699.51" y2="279.96" stroke="#222222" stroke-width="2"/><path d="M 679.59 260.04 Q 690.546 270.996 699.51 279.96" fill="none" stroke="#777777" stroke-width="1"/></g>
<g data-id="protected-exit-2" data-kind="protected_exit" data-layer="door-openings" data-symbol="door-swing"><polyline points="147.9,267.39 167.83,267.39" fill="none" stroke="white" stroke-width="8"/><line x1="147.9" y1="267.39" x2="147.9" y2="287.32" stroke="#222222" stroke-width="2"/><path d="M 167.83 267.39 Q 156.8685 278.3515 147.9 287.32" fill="none" stroke="#777777" stroke-width="1"/></g>
<g data-id="open_work-door" data-kind="door-opening" data-layer="door-openings" data-symbol="door-swing" aria-label="open_work door clear width 0.9 m"><polyline points="390.5,293.95 410.43,293.95" fill="none" stroke="white" stroke-width="8"/><line x1="390.5" y1="293.95" x2="390.5" y2="313.88" stroke="#222222" stroke-width="2"/><path d="M 410.43 293.95 Q 399.4685 304.9115 390.5 313.88" fill="none" stroke="#777777" stroke-width="1"/></g>
<g data-id="meeting-door" data-kind="door-opening" data-layer="door-openings" data-symbol="door-swing" aria-label="meeting door clear width 0.9 m"><polyline points="301.68,267.39 321.6,267.39" fill="none" stroke="white" stroke-width="8"/><line x1="301.68" y1="267.39" x2="301.68" y2="287.31" stroke="#222222" stroke-width="2"/><path d="M 321.6 267.39 Q 310.644 278.346 301.68 287.31" fill="none" stroke="#777777" stroke-width="1"/></g>
<g data-id="reception-door" data-kind="door-opening" data-layer="door-openings" data-symbol="door-swing" aria-label="reception door clear width 0.9 m"><polyline points="387.88,267.39 407.8,267.39" fill="none" stroke="white" stroke-width="8"/><line x1="387.88" y1="267.39" x2="387.88" y2="287.31" stroke="#222222" stroke-width="2"/><path d="M 407.8 267.39 Q 396.844 278.346 387.88 287.31" fill="none" stroke="#777777" stroke-width="1"/></g>
<g data-id="focus-door" data-kind="door-opening" data-layer="door-openings" data-symbol="door-swing" aria-label="focus door clear width 0.9 m"><polyline points="451.09,267.39 471.02,267.39" fill="none" stroke="white" stroke-width="8"/><line x1="451.09" y1="267.39" x2="451.09" y2="287.32" stroke="#222222" stroke-width="2"/><path d="M 471.02 267.39 Q 460.0585 278.3515 451.09 287.32" fill="none" stroke="#777777" stroke-width="1"/></g>
<g data-id="pantry-door" data-kind="door-opening" data-layer="door-openings" data-symbol="door-swing" aria-label="pantry door clear width 0.9 m"><polyline points="505.5,267.39 525.42,267.39" fill="none" stroke="white" stroke-width="8"/><line x1="505.5" y1="267.39" x2="505.5" y2="287.30999999999995" stroke="#222222" stroke-width="2"/><path d="M 525.42 267.39 Q 514.4639999999999 278.34599999999995 505.5 287.30999999999995" fill="none" stroke="#777777" stroke-width="1"/></g>
<g data-id="restroom-door" data-kind="door-opening" data-layer="door-openings" data-symbol="door-swing" aria-label="restroom door clear width 0.9 m"><polyline points="554.16,267.39 574.08,267.39" fill="none" stroke="white" stroke-width="8"/><line x1="554.16" y1="267.39" x2="554.16" y2="287.31000000000006" stroke="#222222" stroke-width="2"/><path d="M 574.08 267.39 Q 563.124 278.346 554.16 287.31000000000006" fill="none" stroke="#777777" stroke-width="1"/></g>
<g data-id="it_storage-door" data-kind="door-opening" data-layer="door-openings" data-symbol="door-swing" aria-label="it_storage door clear width 0.9 m"><polyline points="611.63,267.39 631.55,267.39" fill="none" stroke="white" stroke-width="8"/><line x1="611.63" y1="267.39" x2="611.63" y2="287.30999999999995" stroke="#222222" stroke-width="2"/><path d="M 631.55 267.39 Q 620.5939999999999 278.34599999999995 611.63 287.30999999999995" fill="none" stroke="#777777" stroke-width="1"/></g>
<g data-id="core-door" data-kind="door-opening" data-layer="door-openings" data-symbol="door-swing" aria-label="core door clear width 0.9 m"><polyline points="679.59,279.96 679.59,260.04" fill="none" stroke="white" stroke-width="8"/><line x1="679.59" y1="279.96" x2="699.51" y2="279.96" stroke="#222222" stroke-width="2"/><path d="M 679.59 260.04 Q 690.546 270.996 699.51 279.96" fill="none" stroke="#777777" stroke-width="1"/></g>
</g>
<g data-layer="furniture">
<polygon data-id="open_work-workstation-1" data-kind="workstation" data-layer="furniture" points="161.18,478.12 176.68,478.12 176.68,462.62 161.18,462.62" fill="white" stroke="#666666" stroke-width="1"/><g data-symbol="furniture"><line x1="164.18" y1="470.37" x2="173.68" y2="470.37" stroke="#777777" stroke-width="1"/><circle cx="168.93" cy="470.37" r="2.5" fill="none" stroke="#777777" stroke-width="1"/></g>
<polygon data-id="open_work-workstation-2" data-kind="workstation" data-layer="furniture" points="595.13,323.14 610.63,323.14 610.63,307.64 595.13,307.64" fill="white" stroke="#666666" stroke-width="1"/><g data-symbol="furniture"><line x1="598.13" y1="315.39" x2="607.63" y2="315.39" stroke="#777777" stroke-width="1"/><circle cx="602.88" cy="315.39" r="2.5" fill="none" stroke="#777777" stroke-width="1"/></g>
<polygon data-id="open_work-workstation-3" data-kind="workstation" data-layer="furniture" points="347.16,323.14 362.66,323.14 362.66,307.64 347.16,307.64" fill="white" stroke="#666666" stroke-width="1"/><g data-symbol="furniture"><line x1="350.16" y1="315.39" x2="359.66" y2="315.39" stroke="#777777" stroke-width="1"/><circle cx="354.91" cy="315.39" r="2.5" fill="none" stroke="#777777" stroke-width="1"/></g>
<polygon data-id="open_work-workstation-4" data-kind="workstation" data-layer="furniture" points="471.14,478.12 486.64,478.12 486.64,462.62 471.14,462.62" fill="white" stroke="#666666" stroke-width="1"/><g data-symbol="furniture"><line x1="474.14" y1="470.37" x2="483.64" y2="470.37" stroke="#777777" stroke-width="1"/><circle cx="478.89" cy="470.37" r="2.5" fill="none" stroke="#777777" stroke-width="1"/></g>
<polygon data-id="open_work-workstation-5" data-kind="workstation" data-layer="furniture" points="316.16,478.12 331.66,478.12 331.66,462.62 316.16,462.62" fill="white" stroke="#666666" stroke-width="1"/><g data-symbol="furniture"><line x1="319.16" y1="470.37" x2="328.66" y2="470.37" stroke="#777777" stroke-width="1"/><circle cx="323.91" cy="470.37" r="2.5" fill="none" stroke="#777777" stroke-width="1"/></g>
<polygon data-id="open_work-workstation-6" data-kind="workstation" data-layer="furniture" points="161.18,323.14 176.68,323.14 176.68,307.64 161.18,307.64" fill="white" stroke="#666666" stroke-width="1"/><g data-symbol="furniture"><line x1="164.18" y1="315.39" x2="173.68" y2="315.39" stroke="#777777" stroke-width="1"/><circle cx="168.93" cy="315.39" r="2.5" fill="none" stroke="#777777" stroke-width="1"/></g>
<polygon data-id="open_work-workstation-7" data-kind="workstation" data-layer="furniture" points="471.14,354.13 486.64,354.13 486.64,338.63 471.14,338.63" fill="white" stroke="#666666" stroke-width="1"/><g data-symbol="furniture"><line x1="474.14" y1="346.38" x2="483.64" y2="346.38" stroke="#777777" stroke-width="1"/><circle cx="478.89" cy="346.38" r="2.5" fill="none" stroke="#777777" stroke-width="1"/></g>
<polygon data-id="open_work-workstation-8" data-kind="workstation" data-layer="furniture" points="595.13,447.12 610.63,447.12 610.63,431.62 595.13,431.62" fill="white" stroke="#666666" stroke-width="1"/><g data-symbol="furniture"><line x1="598.13" y1="439.37" x2="607.63" y2="439.37" stroke="#777777" stroke-width="1"/><circle cx="602.88" cy="439.37" r="2.5" fill="none" stroke="#777777" stroke-width="1"/></g>
<polygon data-id="open_work-workstation-9" data-kind="workstation" data-layer="furniture" points="254.17,385.13 269.67,385.13 269.67,369.63 254.17,369.63" fill="white" stroke="#666666" stroke-width="1"/><g data-symbol="furniture"><line x1="257.16999999999996" y1="377.38" x2="266.67" y2="377.38" stroke="#777777" stroke-width="1"/><circle cx="261.92" cy="377.38" r="2.5" fill="none" stroke="#777777" stroke-width="1"/></g>
<polygon data-id="open_work-workstation-10" data-kind="workstation" data-layer="furniture" points="409.15,447.12 424.65,447.12 424.65,431.62 409.15,431.62" fill="white" stroke="#666666" stroke-width="1"/><g data-symbol="furniture"><line x1="412.15" y1="439.37" x2="421.65" y2="439.37" stroke="#777777" stroke-width="1"/><circle cx="416.9" cy="439.37" r="2.5" fill="none" stroke="#777777" stroke-width="1"/></g>
<polygon data-id="open_work-workstation-11" data-kind="workstation" data-layer="furniture" points="223.18,447.12 238.67,447.12 238.67,431.62 223.18,431.62" fill="white" stroke="#666666" stroke-width="1"/><g data-symbol="furniture"><line x1="226.18" y1="439.37" x2="235.67" y2="439.37" stroke="#777777" stroke-width="1"/><circle cx="230.925" cy="439.37" r="2.5" fill="none" stroke="#777777" stroke-width="1"/></g>
<polygon data-id="open_work-workstation-12" data-kind="workstation" data-layer="furniture" points="502.14,416.12 517.64,416.12 517.64,400.63 502.14,400.63" fill="white" stroke="#666666" stroke-width="1"/><g data-symbol="furniture"><line x1="505.14" y1="408.375" x2="514.64" y2="408.375" stroke="#777777" stroke-width="1"/><circle cx="509.89" cy="408.375" r="2.5" fill="none" stroke="#777777" stroke-width="1"/></g>
<polygon data-id="open_work-workstation-13" data-kind="workstation" data-layer="furniture" points="347.16,416.12 362.66,416.12 362.66,400.63 347.16,400.63" fill="white" stroke="#666666" stroke-width="1"/><g data-symbol="furniture"><line x1="350.16" y1="408.375" x2="359.66" y2="408.375" stroke="#777777" stroke-width="1"/><circle cx="354.91" cy="408.375" r="2.5" fill="none" stroke="#777777" stroke-width="1"/></g>
<polygon data-id="open_work-workstation-14" data-kind="workstation" data-layer="furniture" points="564.13,385.13 579.63,385.13 579.63,369.63 564.13,369.63" fill="white" stroke="#666666" stroke-width="1"/><g data-symbol="furniture"><line x1="567.13" y1="377.38" x2="576.63" y2="377.38" stroke="#777777" stroke-width="1"/><circle cx="571.88" cy="377.38" r="2.5" fill="none" stroke="#777777" stroke-width="1"/></g>
<polygon data-id="open_work-workstation-15" data-kind="workstation" data-layer="furniture" points="192.18,385.13 207.68,385.13 207.68,369.63 192.18,369.63" fill="white" stroke="#666666" stroke-width="1"/><g data-symbol="furniture"><line x1="195.18" y1="377.38" x2="204.68" y2="377.38" stroke="#777777" stroke-width="1"/><circle cx="199.93" cy="377.38" r="2.5" fill="none" stroke="#777777" stroke-width="1"/></g>
<polygon data-id="open_work-workstation-16" data-kind="workstation" data-layer="furniture" points="223.18,323.14 238.67,323.14 238.67,307.64 223.18,307.64" fill="white" stroke="#666666" stroke-width="1"/><g data-symbol="furniture"><line x1="226.18" y1="315.39" x2="235.67" y2="315.39" stroke="#777777" stroke-width="1"/><circle cx="230.925" cy="315.39" r="2.5" fill="none" stroke="#777777" stroke-width="1"/></g>
<polygon data-id="open_work-workstation-17" data-kind="workstation" data-layer="furniture" points="285.17,323.14 300.67,323.14 300.67,307.64 285.17,307.64" fill="white" stroke="#666666" stroke-width="1"/><g data-symbol="furniture"><line x1="288.17" y1="315.39" x2="297.67" y2="315.39" stroke="#777777" stroke-width="1"/><circle cx="292.92" cy="315.39" r="2.5" fill="none" stroke="#777777" stroke-width="1"/></g>
<polygon data-id="open_work-workstation-18" data-kind="workstation" data-layer="furniture" points="533.14,478.12 548.63,478.12 548.63,462.62 533.14,462.62" fill="white" stroke="#666666" stroke-width="1"/><g data-symbol="furniture"><line x1="536.14" y1="470.37" x2="545.63" y2="470.37" stroke="#777777" stroke-width="1"/><circle cx="540.885" cy="470.37" r="2.5" fill="none" stroke="#777777" stroke-width="1"/></g>
<polygon data-id="open_work-workstation-19" data-kind="workstation" data-layer="furniture" points="533.14,323.14 548.63,323.14 548.63,307.64 533.14,307.64" fill="white" stroke="#666666" stroke-width="1"/><g data-symbol="furniture"><line x1="536.14" y1="315.39" x2="545.63" y2="315.39" stroke="#777777" stroke-width="1"/><circle cx="540.885" cy="315.39" r="2.5" fill="none" stroke="#777777" stroke-width="1"/></g>
<polygon data-id="open_work-workstation-20" data-kind="workstation" data-layer="furniture" points="440.15,416.12 455.65,416.12 455.65,400.63 440.15,400.63" fill="white" stroke="#666666" stroke-width="1"/><g data-symbol="furniture"><line x1="443.15" y1="408.375" x2="452.65" y2="408.375" stroke="#777777" stroke-width="1"/><circle cx="447.9" cy="408.375" r="2.5" fill="none" stroke="#777777" stroke-width="1"/></g>
<polygon data-id="open_work-workstation-21" data-kind="workstation" data-layer="furniture" points="285.17,447.12 300.67,447.12 300.67,431.62 285.17,431.62" fill="white" stroke="#666666" stroke-width="1"/><g data-symbol="furniture"><line x1="288.17" y1="439.37" x2="297.67" y2="439.37" stroke="#777777" stroke-width="1"/><circle cx="292.92" cy="439.37" r="2.5" fill="none" stroke="#777777" stroke-width="1"/></g>
<polygon data-id="open_work-workstation-22" data-kind="workstation" data-layer="furniture" points="161.18,416.12 176.68,416.12 176.68,400.63 161.18,400.63" fill="white" stroke="#666666" stroke-width="1"/><g data-symbol="furniture"><line x1="164.18" y1="408.375" x2="173.68" y2="408.375" stroke="#777777" stroke-width="1"/><circle cx="168.93" cy="408.375" r="2.5" fill="none" stroke="#777777" stroke-width="1"/></g>
<polygon data-id="open_work-workstation-23" data-kind="workstation" data-layer="furniture" points="440.15,323.14 455.65,323.14 455.65,307.64 440.15,307.64" fill="white" stroke="#666666" stroke-width="1"/><g data-symbol="furniture"><line x1="443.15" y1="315.39" x2="452.65" y2="315.39" stroke="#777777" stroke-width="1"/><circle cx="447.9" cy="315.39" r="2.5" fill="none" stroke="#777777" stroke-width="1"/></g>
<polygon data-id="meeting-meeting_table-1" data-kind="meeting_table" data-layer="furniture" points="300.32,226.43 321.01,226.43 321.01,210.93 300.32,210.93" fill="white" stroke="#666666" stroke-width="1"/><g data-symbol="furniture"><line x1="303.32" y1="218.68" x2="318.01" y2="218.68" stroke="#777777" stroke-width="1"/><circle cx="310.66499999999996" cy="218.68" r="2.5" fill="none" stroke="#777777" stroke-width="1"/></g>
<polygon data-id="reception-reception_desk-1" data-kind="reception_desk" data-layer="furniture" points="376.86,226.43 387.2,226.43 387.2,210.93 376.86,210.93" fill="white" stroke="#666666" stroke-width="1"/><g data-symbol="furniture"><line x1="379.86" y1="218.68" x2="384.2" y2="218.68" stroke="#777777" stroke-width="1"/><circle cx="382.03" cy="218.68" r="2.5" fill="none" stroke="#777777" stroke-width="1"/></g>
<polygon data-id="focus-focus_desk-1" data-kind="focus_desk" data-layer="furniture" points="434.32,226.43 446.74,226.43 446.74,210.93 434.32,210.93" fill="white" stroke="#666666" stroke-width="1"/><g data-symbol="furniture"><line x1="437.32" y1="218.68" x2="443.74" y2="218.68" stroke="#777777" stroke-width="1"/><circle cx="440.53" cy="218.68" r="2.5" fill="none" stroke="#777777" stroke-width="1"/></g>
</g>
<g data-layer="fixtures">
<polygon data-id="pantry-pantry_counter-1" data-kind="pantry_counter" data-layer="fixtures" points="503.28,226.43 513.25,226.43 513.25,210.93 503.28,210.93" fill="white" stroke="#666666" stroke-width="1"/><g data-symbol="fixture"><ellipse cx="508.265" cy="218.68" rx="2.791600000000008" ry="4.340000000000001" fill="none" stroke="#666666" stroke-width="1"/><line x1="508.265" y1="212.93" x2="508.265" y2="218.68" stroke="#666666" stroke-width="1"/></g>
<polygon data-id="pantry-sink-1" data-kind="sink" data-layer="fixtures" points="517.68,101.34 527.64,101.34 527.64,85.84 517.68,85.84" fill="white" stroke="#666666" stroke-width="1"/><g data-symbol="fixture"><ellipse cx="522.66" cy="93.59" rx="2.7888000000000104" ry="4.340000000000001" fill="none" stroke="#666666" stroke-width="1"/><line x1="522.66" y1="87.84" x2="522.66" y2="93.59" stroke="#666666" stroke-width="1"/></g>
<polygon data-id="restroom-wc-1" data-kind="wc" data-layer="fixtures" points="571.19,226.43 581.54,226.43 581.54,210.93 571.19,210.93" fill="white" stroke="#666666" stroke-width="1"/><g data-symbol="fixture"><ellipse cx="576.365" cy="218.68" rx="2.897999999999975" ry="4.340000000000001" fill="none" stroke="#666666" stroke-width="1"/><line x1="576.365" y1="212.93" x2="576.365" y2="218.68" stroke="#666666" stroke-width="1"/></g>
<polygon data-id="restroom-lavatory-1" data-kind="lavatory" data-layer="fixtures" points="574.76,93.59 585.11,93.59 585.11,78.09 574.76,78.09" fill="white" stroke="#666666" stroke-width="1"/><g data-symbol="fixture"><ellipse cx="579.935" cy="85.84" rx="2.898000000000007" ry="4.340000000000001" fill="none" stroke="#666666" stroke-width="1"/><line x1="579.935" y1="80.09" x2="579.935" y2="85.84" stroke="#666666" stroke-width="1"/></g>
<polygon data-id="it_storage-it_rack-1" data-kind="it_rack" data-layer="fixtures" points="600.6,226.43 610.95,226.43 610.95,210.93 600.6,210.93" fill="white" stroke="#666666" stroke-width="1"/><g data-symbol="fixture"><ellipse cx="605.7750000000001" cy="218.68" rx="2.898000000000007" ry="4.340000000000001" fill="none" stroke="#666666" stroke-width="1"/><line x1="605.7750000000001" y1="212.93" x2="605.7750000000001" y2="218.68" stroke="#666666" stroke-width="1"/></g>
<polygon data-id="it_storage-it_rack-2" data-kind="it_rack" data-layer="fixtures" points="632.23,93.59 642.57,93.59 642.57,78.09 632.23,78.09" fill="white" stroke="#666666" stroke-width="1"/><g data-symbol="fixture"><ellipse cx="637.4000000000001" cy="85.84" rx="2.8952000000000093" ry="4.340000000000001" fill="none" stroke="#666666" stroke-width="1"/><line x1="637.4000000000001" y1="80.09" x2="637.4000000000001" y2="85.84" stroke="#666666" stroke-width="1"/></g>
</g>
<g data-layer="egress">
<g data-id="core-stair-door-1" data-kind="stair_door" data-layer="egress"><polyline points="705.83,381.81 705.83,361.88" fill="none" stroke="#777777" stroke-width="1" stroke-dasharray="7 5"/></g>
<g data-id="core-lobby-route-1" data-kind="lobby_route" data-layer="egress"><polyline points="679.59,270.0 679.59,371.84 705.83,371.84" fill="none" stroke="#777777" stroke-width="1" stroke-dasharray="7 5"/></g>
<g data-id="open_work-route-1" data-kind="egress_route" data-layer="egress"><polyline points="400.46,293.95 653.02,293.95 653.02,280.67 679.59,280.67 679.59,270.0" fill="none" stroke="#777777" stroke-width="1" stroke-dasharray="7 5"/></g>
<g data-id="open_work-route-2" data-kind="egress_route" data-layer="egress"><polyline points="400.46,293.95 157.86,293.95 157.86,267.39" fill="none" stroke="#777777" stroke-width="1" stroke-dasharray="7 5"/></g>
<g data-id="meeting-route-1" data-kind="egress_route" data-layer="egress"><polyline points="311.64,267.39 653.02,267.39 653.02,280.67 679.59,280.67 679.59,270.0" fill="none" stroke="#777777" stroke-width="1" stroke-dasharray="7 5"/></g>
<g data-id="meeting-route-2" data-kind="egress_route" data-layer="egress"><polyline points="311.64,267.39 157.86,267.39" fill="none" stroke="#777777" stroke-width="1" stroke-dasharray="7 5"/></g>
<g data-id="reception-route-1" data-kind="egress_route" data-layer="egress"><polyline points="397.84,267.39 653.02,267.39 653.02,280.67 679.59,280.67 679.59,270.0" fill="none" stroke="#777777" stroke-width="1" stroke-dasharray="7 5"/></g>
<g data-id="reception-route-2" data-kind="egress_route" data-layer="egress"><polyline points="397.84,267.39 157.86,267.39" fill="none" stroke="#777777" stroke-width="1" stroke-dasharray="7 5"/></g>
<g data-id="focus-route-1" data-kind="egress_route" data-layer="egress"><polyline points="461.06,267.39 653.02,267.39 653.02,280.67 679.59,280.67 679.59,270.0" fill="none" stroke="#777777" stroke-width="1" stroke-dasharray="7 5"/></g>
<g data-id="focus-route-2" data-kind="egress_route" data-layer="egress"><polyline points="461.06,267.39 157.86,267.39" fill="none" stroke="#777777" stroke-width="1" stroke-dasharray="7 5"/></g>
<g data-id="pantry-route-1" data-kind="egress_route" data-layer="egress"><polyline points="515.46,267.39 653.02,267.39 653.02,280.67 679.59,280.67 679.59,270.0" fill="none" stroke="#777777" stroke-width="1" stroke-dasharray="7 5"/></g>
<g data-id="pantry-route-2" data-kind="egress_route" data-layer="egress"><polyline points="515.46,267.39 157.86,267.39" fill="none" stroke="#777777" stroke-width="1" stroke-dasharray="7 5"/></g>
<g data-id="restroom-route-1" data-kind="egress_route" data-layer="egress"><polyline points="564.12,267.39 653.02,267.39 653.02,280.67 679.59,280.67 679.59,270.0" fill="none" stroke="#777777" stroke-width="1" stroke-dasharray="7 5"/></g>
<g data-id="restroom-route-2" data-kind="egress_route" data-layer="egress"><polyline points="564.12,267.39 157.86,267.39" fill="none" stroke="#777777" stroke-width="1" stroke-dasharray="7 5"/></g>
<g data-id="it_storage-route-1" data-kind="egress_route" data-layer="egress"><polyline points="621.59,267.39 653.02,267.39 653.02,280.67 679.59,280.67 679.59,270.0" fill="none" stroke="#777777" stroke-width="1" stroke-dasharray="7 5"/></g>
<g data-id="it_storage-route-2" data-kind="egress_route" data-layer="egress"><polyline points="621.59,267.39 157.86,267.39" fill="none" stroke="#777777" stroke-width="1" stroke-dasharray="7 5"/></g>
</g>
<g data-layer="dimensions">
<g data-id="dimension-overall-width" data-kind="overall_width" data-layer="dimensions" data-symbol="dimension-chain"><polyline points="147.9,491.4 812.1,491.4" fill="none" stroke="#333333" stroke-width="1"/><line x1="147.9" y1="486.4" x2="147.9" y2="496.4" stroke="#333333" stroke-width="1"/><line x1="812.1" y1="486.4" x2="812.1" y2="496.4" stroke="#333333" stroke-width="1"/><text x="480.0" y="515.4" font-family="Noto Sans KR, Malgun Gothic, sans-serif" font-size="9" text-anchor="middle">30 m</text></g>
<g data-id="dimension-overall-depth" data-kind="overall_depth" data-layer="dimensions" data-symbol="dimension-chain"><polyline points="147.9,491.4 147.9,48.6" fill="none" stroke="#333333" stroke-width="1"/><line x1="142.9" y1="491.4" x2="152.9" y2="491.4" stroke="#333333" stroke-width="1"/><line x1="142.9" y1="48.6" x2="152.9" y2="48.6" stroke="#333333" stroke-width="1"/><text x="119.9" y="270.0" font-family="Noto Sans KR, Malgun Gothic, sans-serif" font-size="9" text-anchor="middle">20 m</text></g>
<g data-id="dimension-circulation-width" data-kind="circulation_width" data-layer="dimensions" data-symbol="dimension-chain"><polyline points="147.9,48.6 174.47,48.6" fill="none" stroke="#333333" stroke-width="1"/><line x1="147.9" y1="43.6" x2="147.9" y2="53.6" stroke="#333333" stroke-width="1"/><line x1="174.47" y1="43.6" x2="174.47" y2="53.6" stroke="#333333" stroke-width="1"/></g>
<g data-id="north-arrow" data-kind="north_arrow" data-layer="dimensions" data-symbol="dimension-chain"><polyline points="789.96,88.45 789.96,61.88" fill="none" stroke="#333333" stroke-width="1"/><line x1="784.96" y1="88.45" x2="794.96" y2="88.45" stroke="#333333" stroke-width="1"/><line x1="784.96" y1="61.88" x2="794.96" y2="61.88" stroke="#333333" stroke-width="1"/><text x="789.96" y="67.165" font-family="Noto Sans KR, Malgun Gothic, sans-serif" font-size="9" text-anchor="middle">N</text></g>
<g data-id="scale-line" data-kind="scale_line" data-layer="dimensions" data-symbol="dimension-chain"><polyline points="165.61,473.69 276.31,473.69" fill="none" stroke="#333333" stroke-width="1"/><line x1="165.61" y1="468.69" x2="165.61" y2="478.69" stroke="#333333" stroke-width="1"/><line x1="276.31" y1="468.69" x2="276.31" y2="478.69" stroke="#333333" stroke-width="1"/></g>
<g data-id="street-line" data-kind="street" data-layer="dimensions" data-symbol="dimension-chain"><polyline points="147.9,491.4 812.1,491.4" fill="none" stroke="#333333" stroke-width="1"/><line x1="147.9" y1="486.4" x2="147.9" y2="496.4" stroke="#333333" stroke-width="1"/><line x1="812.1" y1="486.4" x2="812.1" y2="496.4" stroke="#333333" stroke-width="1"/><text x="480.0" y="519.4" font-family="Noto Sans KR, Malgun Gothic, sans-serif" font-size="9" text-anchor="middle">도로</text></g>
</g>
<g data-layer="text-labels">
<text data-id="open_work-label" data-kind="room-label" data-layer="text-labels" x="400.46" y="392.68" font-family="Noto Sans KR, Malgun Gothic, sans-serif" font-size="10" text-anchor="middle"><tspan x="400.46" dy="0">업무공간</tspan><tspan x="400.46" dy="12">203.466 m2</tspan></text>
<text data-id="meeting-label" data-kind="room-label" data-layer="text-labels" x="311.64" y="157.99" font-family="Noto Sans KR, Malgun Gothic, sans-serif" font-size="10" text-anchor="middle"><tspan x="311.64" dy="0">회의실</tspan><tspan x="311.64" dy="12">51.3 m2</tspan></text>
<text data-id="reception-label" data-kind="room-label" data-layer="text-labels" x="397.84" y="157.99" font-family="Noto Sans KR, Malgun Gothic, sans-serif" font-size="10" text-anchor="middle"><tspan x="397.84" dy="0">접수</tspan><tspan x="397.84" dy="12">25.65 m2</tspan></text>
<text data-id="focus-label" data-kind="room-label" data-layer="text-labels" x="461.06" y="157.99" font-family="Noto Sans KR, Malgun Gothic, sans-serif" font-size="10" text-anchor="middle"><tspan x="461.06" dy="0">집중업무실</tspan><tspan x="461.06" dy="12">30.78 m2</tspan></text>
<text data-id="pantry-label" data-kind="room-label" data-layer="text-labels" x="515.46" y="172.74" font-family="Noto Sans KR, Malgun Gothic, sans-serif" font-size="10" text-anchor="middle"><tspan x="515.46" dy="0">탕비실</tspan><tspan x="515.46" dy="12">15.39 m2</tspan></text>
<text data-id="restroom-label" data-kind="room-label" data-layer="text-labels" x="564.12" y="157.99" font-family="Noto Sans KR, Malgun Gothic, sans-serif" font-size="10" text-anchor="middle"><tspan x="564.12" dy="0">화장실</tspan><tspan x="564.12" dy="12">25.65 m2</tspan></text>
<text data-id="it_storage-label" data-kind="room-label" data-layer="text-labels" x="621.59" y="157.99" font-family="Noto Sans KR, Malgun Gothic, sans-serif" font-size="10" text-anchor="middle"><tspan x="621.59" dy="0">전산·창고</tspan><tspan x="621.59" dy="12">25.65 m2</tspan></text>
<text data-id="core-label" data-kind="room-label" data-layer="text-labels" x="745.85" y="270.0" font-family="Noto Sans KR, Malgun Gothic, sans-serif" font-size="10" text-anchor="middle"><tspan x="745.85" dy="0">코어</tspan><tspan x="745.85" dy="12">71.82 m2</tspan></text>
<text data-id="corridor-cross-label" data-kind="circulation" data-layer="text-labels" x="238.82" y="280.67" font-family="Noto Sans KR, Malgun Gothic, sans-serif" font-size="10" text-anchor="middle">복도</text>
<g data-id="open_work-door-width-label" data-kind="door-width" data-layer="text-labels"></g>
<g data-id="meeting-door-width-label" data-kind="door-width" data-layer="text-labels"></g>
<g data-id="reception-door-width-label" data-kind="door-width" data-layer="text-labels"></g>
<g data-id="focus-door-width-label" data-kind="door-width" data-layer="text-labels"></g>
<g data-id="pantry-door-width-label" data-kind="door-width" data-layer="text-labels"></g>
<g data-id="restroom-door-width-label" data-kind="door-width" data-layer="text-labels"></g>
<g data-id="it_storage-door-width-label" data-kind="door-width" data-layer="text-labels"></g>
<g data-id="core-door-width-label" data-kind="door-width" data-layer="text-labels"></g>
<text data-id="core-stair-1-label" data-kind="core-label" data-layer="text-labels" x="758.96" y="371.84" font-family="Noto Sans KR, Malgun Gothic, sans-serif" font-size="10" text-anchor="middle">계단실</text>
<text data-id="remote-stair-2-label" data-kind="core-label" data-layer="text-labels" x="201.04" y="236.39" font-family="Noto Sans KR, Malgun Gothic, sans-serif" font-size="10" text-anchor="middle">계단실</text>
<text data-id="core-elevator-label" data-kind="core-label" data-layer="text-labels" x="785.53" y="320.92" font-family="Noto Sans KR, Malgun Gothic, sans-serif" font-size="10" text-anchor="middle">승강기</text>
<text data-id="core-shaft-label" data-kind="core-label" data-layer="text-labels" x="785.53" y="250.07" font-family="Noto Sans KR, Malgun Gothic, sans-serif" font-size="10" text-anchor="middle">샤프트</text>
<text data-id="core-lobby-label" data-kind="core-label" data-layer="text-labels" x="712.55" y="270.0" font-family="Noto Sans KR, Malgun Gothic, sans-serif" font-size="10" text-anchor="middle">로비</text>
</g>
</svg>